<svg width="16" height="16" viewBox="0 0 16 16" fill="none" xmlns="http://www.w3.org/2000/svg">
<path fill-rule="evenodd" clip-rule="evenodd" d="M4 5.99963C4.00007 5.22986 4.22226 4.47645 4.63989 3.82982C5.05753 3.18319 5.65288 2.6708 6.3545 2.35414C7.05613 2.03747 7.83422 1.92998 8.59542 2.04457C9.35662 2.15915 10.0686 2.49094 10.6459 3.00013C11.2232 3.50931 11.6413 4.17426 11.8501 4.91518C12.0589 5.65611 12.0494 6.44153 11.8228 7.17722C11.5963 7.9129 11.1623 8.56759 10.5729 9.06272C9.98349 9.55786 9.26374 9.87241 8.5 9.96863V15.4996C8.5 15.6322 8.44732 15.7594 8.35355 15.8532C8.25979 15.947 8.13261 15.9996 8 15.9996C7.86739 15.9996 7.74022 15.947 7.64645 15.8532C7.55268 15.7594 7.5 15.6322 7.5 15.4996V9.96963C6.53297 9.84779 5.64369 9.37707 4.99922 8.64586C4.35474 7.91466 3.99942 6.97431 4 5.99963Z" fill="#B3B3B3"/>
</svg>
