<svg xmlns="http://www.w3.org/2000/svg" width="330" height="271" viewBox="0 0 330 271" fill="none">
    <g clip-path="url(#clip0_82_1228)"><path d="M1.11938 0.09L199.679 0C266.709 3.78 325.329 52.52 329.369 121.63C335.009 218.01 273.949 266.85 182.379 270.01C159.009 270.82 132.989 270.6 109.659 270.01C47.4894 268.42 -0.460624 217.6 -0.000624326 155.68L0.319376 0.62L1.11938 0.09ZM75.3594 25.33H25.3594L25.3294 155.68C26.2694 227.42 95.2094 259.88 158.959 242.59C210.359 228.65 226.989 195.5 227.369 144.35C227.499 126.99 226.969 108.37 212.679 96.31C202.729 87.91 189.879 86.32 177.339 85.32C176.569 105.89 178.339 127.18 177.359 147.67C176.649 162.56 174.149 175.71 164.339 187.31C130.049 227.89 76.7994 199.46 75.3094 151.67L75.3394 25.31L75.3594 25.33ZM101.359 25.33V156.99C101.359 165.97 113.589 179.74 122.519 181.16C135.929 183.29 151.359 168.78 151.359 155.66V61.66C151.359 58.68 159.339 60.65 160.999 60.69C188.269 61.33 208.319 58.44 230.369 77.98C256.789 101.39 256.149 148.64 249.819 180.8C245.349 203.48 234.719 224.04 218.019 239.99C261.849 232.57 294.939 202.56 302.469 158.13C314.879 84.95 268.879 29.53 195.709 25.32L101.349 25.35L101.359 25.33Z" fill="#08A395"></path></g><defs><clipPath id="clip0_82_1228"><rect width="329.73" height="270.54" fill="white"></rect></clipPath></defs>
</svg>